<svg xmlns="http://www.w3.org/2000/svg" viewBox="0 0 100 100" preserveAspectRatio="xMidYMid" width="200" height="200" style="shape-rendering: auto; display: block; background: transparent;" xmlns:xlink="http://www.w3.org/1999/xlink"><g><g transform="rotate(0 50 50)">
  <rect fill="#4e2f68" height="1" width="1" ry="0" rx="0" y="39.5" x="49.5">
    <animate repeatCount="indefinite" begin="-0.45412844036697253s" dur="0.4587155963302753s" keyTimes="0;1" values="1;0" attributeName="opacity"></animate>
  </rect>
</g><g transform="rotate(3.6 50 50)">
  <rect fill="#4e2f68" height="1" width="1" ry="0" rx="0" y="39.5" x="49.5">
    <animate repeatCount="indefinite" begin="-0.4495412844036698s" dur="0.4587155963302753s" keyTimes="0;1" values="1;0" attributeName="opacity"></animate>
  </rect>
</g><g transform="rotate(7.2 50 50)">
  <rect fill="#4e2f68" height="1" width="1" ry="0" rx="0" y="39.5" x="49.5">
    <animate repeatCount="indefinite" begin="-0.444954128440367s" dur="0.4587155963302753s" keyTimes="0;1" values="1;0" attributeName="opacity"></animate>
  </rect>
</g><g transform="rotate(10.8 50 50)">
  <rect fill="#4e2f68" height="1" width="1" ry="0" rx="0" y="39.5" x="49.5">
    <animate repeatCount="indefinite" begin="-0.4403669724770643s" dur="0.4587155963302753s" keyTimes="0;1" values="1;0" attributeName="opacity"></animate>
  </rect>
</g><g transform="rotate(14.4 50 50)">
  <rect fill="#4e2f68" height="1" width="1" ry="0" rx="0" y="39.5" x="49.5">
    <animate repeatCount="indefinite" begin="-0.4357798165137615s" dur="0.4587155963302753s" keyTimes="0;1" values="1;0" attributeName="opacity"></animate>
  </rect>
</g><g transform="rotate(18 50 50)">
  <rect fill="#4e2f68" height="1" width="1" ry="0" rx="0" y="39.5" x="49.5">
    <animate repeatCount="indefinite" begin="-0.4311926605504588s" dur="0.4587155963302753s" keyTimes="0;1" values="1;0" attributeName="opacity"></animate>
  </rect>
</g><g transform="rotate(21.6 50 50)">
  <rect fill="#4e2f68" height="1" width="1" ry="0" rx="0" y="39.5" x="49.5">
    <animate repeatCount="indefinite" begin="-0.426605504587156s" dur="0.4587155963302753s" keyTimes="0;1" values="1;0" attributeName="opacity"></animate>
  </rect>
</g><g transform="rotate(25.2 50 50)">
  <rect fill="#4e2f68" height="1" width="1" ry="0" rx="0" y="39.5" x="49.5">
    <animate repeatCount="indefinite" begin="-0.4220183486238533s" dur="0.4587155963302753s" keyTimes="0;1" values="1;0" attributeName="opacity"></animate>
  </rect>
</g><g transform="rotate(28.8 50 50)">
  <rect fill="#4e2f68" height="1" width="1" ry="0" rx="0" y="39.5" x="49.5">
    <animate repeatCount="indefinite" begin="-0.4174311926605505s" dur="0.4587155963302753s" keyTimes="0;1" values="1;0" attributeName="opacity"></animate>
  </rect>
</g><g transform="rotate(32.4 50 50)">
  <rect fill="#4e2f68" height="1" width="1" ry="0" rx="0" y="39.5" x="49.5">
    <animate repeatCount="indefinite" begin="-0.4128440366972478s" dur="0.4587155963302753s" keyTimes="0;1" values="1;0" attributeName="opacity"></animate>
  </rect>
</g><g transform="rotate(36 50 50)">
  <rect fill="#4e2f68" height="1" width="1" ry="0" rx="0" y="39.5" x="49.5">
    <animate repeatCount="indefinite" begin="-0.408256880733945s" dur="0.4587155963302753s" keyTimes="0;1" values="1;0" attributeName="opacity"></animate>
  </rect>
</g><g transform="rotate(39.6 50 50)">
  <rect fill="#4e2f68" height="1" width="1" ry="0" rx="0" y="39.5" x="49.5">
    <animate repeatCount="indefinite" begin="-0.4036697247706423s" dur="0.4587155963302753s" keyTimes="0;1" values="1;0" attributeName="opacity"></animate>
  </rect>
</g><g transform="rotate(43.2 50 50)">
  <rect fill="#4e2f68" height="1" width="1" ry="0" rx="0" y="39.5" x="49.5">
    <animate repeatCount="indefinite" begin="-0.3990825688073395s" dur="0.4587155963302753s" keyTimes="0;1" values="1;0" attributeName="opacity"></animate>
  </rect>
</g><g transform="rotate(46.8 50 50)">
  <rect fill="#4e2f68" height="1" width="1" ry="0" rx="0" y="39.5" x="49.5">
    <animate repeatCount="indefinite" begin="-0.3944954128440368s" dur="0.4587155963302753s" keyTimes="0;1" values="1;0" attributeName="opacity"></animate>
  </rect>
</g><g transform="rotate(50.4 50 50)">
  <rect fill="#4e2f68" height="1" width="1" ry="0" rx="0" y="39.5" x="49.5">
    <animate repeatCount="indefinite" begin="-0.389908256880734s" dur="0.4587155963302753s" keyTimes="0;1" values="1;0" attributeName="opacity"></animate>
  </rect>
</g><g transform="rotate(54 50 50)">
  <rect fill="#4e2f68" height="1" width="1" ry="0" rx="0" y="39.5" x="49.5">
    <animate repeatCount="indefinite" begin="-0.38532110091743127s" dur="0.4587155963302753s" keyTimes="0;1" values="1;0" attributeName="opacity"></animate>
  </rect>
</g><g transform="rotate(57.6 50 50)">
  <rect fill="#4e2f68" height="1" width="1" ry="0" rx="0" y="39.5" x="49.5">
    <animate repeatCount="indefinite" begin="-0.3807339449541285s" dur="0.4587155963302753s" keyTimes="0;1" values="1;0" attributeName="opacity"></animate>
  </rect>
</g><g transform="rotate(61.2 50 50)">
  <rect fill="#4e2f68" height="1" width="1" ry="0" rx="0" y="39.5" x="49.5">
    <animate repeatCount="indefinite" begin="-0.37614678899082576s" dur="0.4587155963302753s" keyTimes="0;1" values="1;0" attributeName="opacity"></animate>
  </rect>
</g><g transform="rotate(64.8 50 50)">
  <rect fill="#4e2f68" height="1" width="1" ry="0" rx="0" y="39.5" x="49.5">
    <animate repeatCount="indefinite" begin="-0.371559633027523s" dur="0.4587155963302753s" keyTimes="0;1" values="1;0" attributeName="opacity"></animate>
  </rect>
</g><g transform="rotate(68.4 50 50)">
  <rect fill="#4e2f68" height="1" width="1" ry="0" rx="0" y="39.5" x="49.5">
    <animate repeatCount="indefinite" begin="-0.3669724770642202s" dur="0.4587155963302753s" keyTimes="0;1" values="1;0" attributeName="opacity"></animate>
  </rect>
</g><g transform="rotate(72 50 50)">
  <rect fill="#4e2f68" height="1" width="1" ry="0" rx="0" y="39.5" x="49.5">
    <animate repeatCount="indefinite" begin="-0.3623853211009175s" dur="0.4587155963302753s" keyTimes="0;1" values="1;0" attributeName="opacity"></animate>
  </rect>
</g><g transform="rotate(75.6 50 50)">
  <rect fill="#4e2f68" height="1" width="1" ry="0" rx="0" y="39.5" x="49.5">
    <animate repeatCount="indefinite" begin="-0.3577981651376147s" dur="0.4587155963302753s" keyTimes="0;1" values="1;0" attributeName="opacity"></animate>
  </rect>
</g><g transform="rotate(79.2 50 50)">
  <rect fill="#4e2f68" height="1" width="1" ry="0" rx="0" y="39.5" x="49.5">
    <animate repeatCount="indefinite" begin="-0.353211009174312s" dur="0.4587155963302753s" keyTimes="0;1" values="1;0" attributeName="opacity"></animate>
  </rect>
</g><g transform="rotate(82.8 50 50)">
  <rect fill="#4e2f68" height="1" width="1" ry="0" rx="0" y="39.5" x="49.5">
    <animate repeatCount="indefinite" begin="-0.3486238532110092s" dur="0.4587155963302753s" keyTimes="0;1" values="1;0" attributeName="opacity"></animate>
  </rect>
</g><g transform="rotate(86.4 50 50)">
  <rect fill="#4e2f68" height="1" width="1" ry="0" rx="0" y="39.5" x="49.5">
    <animate repeatCount="indefinite" begin="-0.34403669724770647s" dur="0.4587155963302753s" keyTimes="0;1" values="1;0" attributeName="opacity"></animate>
  </rect>
</g><g transform="rotate(90 50 50)">
  <rect fill="#4e2f68" height="1" width="1" ry="0" rx="0" y="39.5" x="49.5">
    <animate repeatCount="indefinite" begin="-0.3394495412844037s" dur="0.4587155963302753s" keyTimes="0;1" values="1;0" attributeName="opacity"></animate>
  </rect>
</g><g transform="rotate(93.6 50 50)">
  <rect fill="#4e2f68" height="1" width="1" ry="0" rx="0" y="39.5" x="49.5">
    <animate repeatCount="indefinite" begin="-0.33486238532110096s" dur="0.4587155963302753s" keyTimes="0;1" values="1;0" attributeName="opacity"></animate>
  </rect>
</g><g transform="rotate(97.2 50 50)">
  <rect fill="#4e2f68" height="1" width="1" ry="0" rx="0" y="39.5" x="49.5">
    <animate repeatCount="indefinite" begin="-0.3302752293577982s" dur="0.4587155963302753s" keyTimes="0;1" values="1;0" attributeName="opacity"></animate>
  </rect>
</g><g transform="rotate(100.8 50 50)">
  <rect fill="#4e2f68" height="1" width="1" ry="0" rx="0" y="39.5" x="49.5">
    <animate repeatCount="indefinite" begin="-0.32568807339449546s" dur="0.4587155963302753s" keyTimes="0;1" values="1;0" attributeName="opacity"></animate>
  </rect>
</g><g transform="rotate(104.4 50 50)">
  <rect fill="#4e2f68" height="1" width="1" ry="0" rx="0" y="39.5" x="49.5">
    <animate repeatCount="indefinite" begin="-0.3211009174311927s" dur="0.4587155963302753s" keyTimes="0;1" values="1;0" attributeName="opacity"></animate>
  </rect>
</g><g transform="rotate(108 50 50)">
  <rect fill="#4e2f68" height="1" width="1" ry="0" rx="0" y="39.5" x="49.5">
    <animate repeatCount="indefinite" begin="-0.31651376146788995s" dur="0.4587155963302753s" keyTimes="0;1" values="1;0" attributeName="opacity"></animate>
  </rect>
</g><g transform="rotate(111.6 50 50)">
  <rect fill="#4e2f68" height="1" width="1" ry="0" rx="0" y="39.5" x="49.5">
    <animate repeatCount="indefinite" begin="-0.3119266055045872s" dur="0.4587155963302753s" keyTimes="0;1" values="1;0" attributeName="opacity"></animate>
  </rect>
</g><g transform="rotate(115.2 50 50)">
  <rect fill="#4e2f68" height="1" width="1" ry="0" rx="0" y="39.5" x="49.5">
    <animate repeatCount="indefinite" begin="-0.30733944954128445s" dur="0.4587155963302753s" keyTimes="0;1" values="1;0" attributeName="opacity"></animate>
  </rect>
</g><g transform="rotate(118.8 50 50)">
  <rect fill="#4e2f68" height="1" width="1" ry="0" rx="0" y="39.5" x="49.5">
    <animate repeatCount="indefinite" begin="-0.30275229357798167s" dur="0.4587155963302753s" keyTimes="0;1" values="1;0" attributeName="opacity"></animate>
  </rect>
</g><g transform="rotate(122.4 50 50)">
  <rect fill="#4e2f68" height="1" width="1" ry="0" rx="0" y="39.5" x="49.5">
    <animate repeatCount="indefinite" begin="-0.29816513761467894s" dur="0.4587155963302753s" keyTimes="0;1" values="1;0" attributeName="opacity"></animate>
  </rect>
</g><g transform="rotate(126 50 50)">
  <rect fill="#4e2f68" height="1" width="1" ry="0" rx="0" y="39.5" x="49.5">
    <animate repeatCount="indefinite" begin="-0.29357798165137616s" dur="0.4587155963302753s" keyTimes="0;1" values="1;0" attributeName="opacity"></animate>
  </rect>
</g><g transform="rotate(129.6 50 50)">
  <rect fill="#4e2f68" height="1" width="1" ry="0" rx="0" y="39.5" x="49.5">
    <animate repeatCount="indefinite" begin="-0.28899082568807344s" dur="0.4587155963302753s" keyTimes="0;1" values="1;0" attributeName="opacity"></animate>
  </rect>
</g><g transform="rotate(133.2 50 50)">
  <rect fill="#4e2f68" height="1" width="1" ry="0" rx="0" y="39.5" x="49.5">
    <animate repeatCount="indefinite" begin="-0.28440366972477066s" dur="0.4587155963302753s" keyTimes="0;1" values="1;0" attributeName="opacity"></animate>
  </rect>
</g><g transform="rotate(136.8 50 50)">
  <rect fill="#4e2f68" height="1" width="1" ry="0" rx="0" y="39.5" x="49.5">
    <animate repeatCount="indefinite" begin="-0.27981651376146793s" dur="0.4587155963302753s" keyTimes="0;1" values="1;0" attributeName="opacity"></animate>
  </rect>
</g><g transform="rotate(140.4 50 50)">
  <rect fill="#4e2f68" height="1" width="1" ry="0" rx="0" y="39.5" x="49.5">
    <animate repeatCount="indefinite" begin="-0.27522935779816515s" dur="0.4587155963302753s" keyTimes="0;1" values="1;0" attributeName="opacity"></animate>
  </rect>
</g><g transform="rotate(144 50 50)">
  <rect fill="#4e2f68" height="1" width="1" ry="0" rx="0" y="39.5" x="49.5">
    <animate repeatCount="indefinite" begin="-0.27064220183486243s" dur="0.4587155963302753s" keyTimes="0;1" values="1;0" attributeName="opacity"></animate>
  </rect>
</g><g transform="rotate(147.6 50 50)">
  <rect fill="#4e2f68" height="1" width="1" ry="0" rx="0" y="39.5" x="49.5">
    <animate repeatCount="indefinite" begin="-0.26605504587155965s" dur="0.4587155963302753s" keyTimes="0;1" values="1;0" attributeName="opacity"></animate>
  </rect>
</g><g transform="rotate(151.2 50 50)">
  <rect fill="#4e2f68" height="1" width="1" ry="0" rx="0" y="39.5" x="49.5">
    <animate repeatCount="indefinite" begin="-0.2614678899082569s" dur="0.4587155963302753s" keyTimes="0;1" values="1;0" attributeName="opacity"></animate>
  </rect>
</g><g transform="rotate(154.8 50 50)">
  <rect fill="#4e2f68" height="1" width="1" ry="0" rx="0" y="39.5" x="49.5">
    <animate repeatCount="indefinite" begin="-0.25688073394495414s" dur="0.4587155963302753s" keyTimes="0;1" values="1;0" attributeName="opacity"></animate>
  </rect>
</g><g transform="rotate(158.4 50 50)">
  <rect fill="#4e2f68" height="1" width="1" ry="0" rx="0" y="39.5" x="49.5">
    <animate repeatCount="indefinite" begin="-0.2522935779816514s" dur="0.4587155963302753s" keyTimes="0;1" values="1;0" attributeName="opacity"></animate>
  </rect>
</g><g transform="rotate(162 50 50)">
  <rect fill="#4e2f68" height="1" width="1" ry="0" rx="0" y="39.5" x="49.5">
    <animate repeatCount="indefinite" begin="-0.24770642201834867s" dur="0.4587155963302753s" keyTimes="0;1" values="1;0" attributeName="opacity"></animate>
  </rect>
</g><g transform="rotate(165.6 50 50)">
  <rect fill="#4e2f68" height="1" width="1" ry="0" rx="0" y="39.5" x="49.5">
    <animate repeatCount="indefinite" begin="-0.2431192660550459s" dur="0.4587155963302753s" keyTimes="0;1" values="1;0" attributeName="opacity"></animate>
  </rect>
</g><g transform="rotate(169.2 50 50)">
  <rect fill="#4e2f68" height="1" width="1" ry="0" rx="0" y="39.5" x="49.5">
    <animate repeatCount="indefinite" begin="-0.23853211009174316s" dur="0.4587155963302753s" keyTimes="0;1" values="1;0" attributeName="opacity"></animate>
  </rect>
</g><g transform="rotate(172.8 50 50)">
  <rect fill="#4e2f68" height="1" width="1" ry="0" rx="0" y="39.5" x="49.5">
    <animate repeatCount="indefinite" begin="-0.2339449541284404s" dur="0.4587155963302753s" keyTimes="0;1" values="1;0" attributeName="opacity"></animate>
  </rect>
</g><g transform="rotate(176.4 50 50)">
  <rect fill="#4e2f68" height="1" width="1" ry="0" rx="0" y="39.5" x="49.5">
    <animate repeatCount="indefinite" begin="-0.22935779816513766s" dur="0.4587155963302753s" keyTimes="0;1" values="1;0" attributeName="opacity"></animate>
  </rect>
</g><g transform="rotate(180 50 50)">
  <rect fill="#4e2f68" height="1" width="1" ry="0" rx="0" y="39.5" x="49.5">
    <animate repeatCount="indefinite" begin="-0.2247706422018349s" dur="0.4587155963302753s" keyTimes="0;1" values="1;0" attributeName="opacity"></animate>
  </rect>
</g><g transform="rotate(183.6 50 50)">
  <rect fill="#4e2f68" height="1" width="1" ry="0" rx="0" y="39.5" x="49.5">
    <animate repeatCount="indefinite" begin="-0.22018348623853215s" dur="0.4587155963302753s" keyTimes="0;1" values="1;0" attributeName="opacity"></animate>
  </rect>
</g><g transform="rotate(187.2 50 50)">
  <rect fill="#4e2f68" height="1" width="1" ry="0" rx="0" y="39.5" x="49.5">
    <animate repeatCount="indefinite" begin="-0.2155963302752294s" dur="0.4587155963302753s" keyTimes="0;1" values="1;0" attributeName="opacity"></animate>
  </rect>
</g><g transform="rotate(190.8 50 50)">
  <rect fill="#4e2f68" height="1" width="1" ry="0" rx="0" y="39.5" x="49.5">
    <animate repeatCount="indefinite" begin="-0.21100917431192664s" dur="0.4587155963302753s" keyTimes="0;1" values="1;0" attributeName="opacity"></animate>
  </rect>
</g><g transform="rotate(194.4 50 50)">
  <rect fill="#4e2f68" height="1" width="1" ry="0" rx="0" y="39.5" x="49.5">
    <animate repeatCount="indefinite" begin="-0.2064220183486239s" dur="0.4587155963302753s" keyTimes="0;1" values="1;0" attributeName="opacity"></animate>
  </rect>
</g><g transform="rotate(198 50 50)">
  <rect fill="#4e2f68" height="1" width="1" ry="0" rx="0" y="39.5" x="49.5">
    <animate repeatCount="indefinite" begin="-0.20183486238532114s" dur="0.4587155963302753s" keyTimes="0;1" values="1;0" attributeName="opacity"></animate>
  </rect>
</g><g transform="rotate(201.6 50 50)">
  <rect fill="#4e2f68" height="1" width="1" ry="0" rx="0" y="39.5" x="49.5">
    <animate repeatCount="indefinite" begin="-0.1972477064220184s" dur="0.4587155963302753s" keyTimes="0;1" values="1;0" attributeName="opacity"></animate>
  </rect>
</g><g transform="rotate(205.2 50 50)">
  <rect fill="#4e2f68" height="1" width="1" ry="0" rx="0" y="39.5" x="49.5">
    <animate repeatCount="indefinite" begin="-0.19266055045871563s" dur="0.4587155963302753s" keyTimes="0;1" values="1;0" attributeName="opacity"></animate>
  </rect>
</g><g transform="rotate(208.8 50 50)">
  <rect fill="#4e2f68" height="1" width="1" ry="0" rx="0" y="39.5" x="49.5">
    <animate repeatCount="indefinite" begin="-0.18807339449541288s" dur="0.4587155963302753s" keyTimes="0;1" values="1;0" attributeName="opacity"></animate>
  </rect>
</g><g transform="rotate(212.4 50 50)">
  <rect fill="#4e2f68" height="1" width="1" ry="0" rx="0" y="39.5" x="49.5">
    <animate repeatCount="indefinite" begin="-0.1834862385321101s" dur="0.4587155963302753s" keyTimes="0;1" values="1;0" attributeName="opacity"></animate>
  </rect>
</g><g transform="rotate(216 50 50)">
  <rect fill="#4e2f68" height="1" width="1" ry="0" rx="0" y="39.5" x="49.5">
    <animate repeatCount="indefinite" begin="-0.17889908256880735s" dur="0.4587155963302753s" keyTimes="0;1" values="1;0" attributeName="opacity"></animate>
  </rect>
</g><g transform="rotate(219.6 50 50)">
  <rect fill="#4e2f68" height="1" width="1" ry="0" rx="0" y="39.5" x="49.5">
    <animate repeatCount="indefinite" begin="-0.1743119266055046s" dur="0.4587155963302753s" keyTimes="0;1" values="1;0" attributeName="opacity"></animate>
  </rect>
</g><g transform="rotate(223.2 50 50)">
  <rect fill="#4e2f68" height="1" width="1" ry="0" rx="0" y="39.5" x="49.5">
    <animate repeatCount="indefinite" begin="-0.16972477064220184s" dur="0.4587155963302753s" keyTimes="0;1" values="1;0" attributeName="opacity"></animate>
  </rect>
</g><g transform="rotate(226.8 50 50)">
  <rect fill="#4e2f68" height="1" width="1" ry="0" rx="0" y="39.5" x="49.5">
    <animate repeatCount="indefinite" begin="-0.1651376146788991s" dur="0.4587155963302753s" keyTimes="0;1" values="1;0" attributeName="opacity"></animate>
  </rect>
</g><g transform="rotate(230.4 50 50)">
  <rect fill="#4e2f68" height="1" width="1" ry="0" rx="0" y="39.5" x="49.5">
    <animate repeatCount="indefinite" begin="-0.16055045871559634s" dur="0.4587155963302753s" keyTimes="0;1" values="1;0" attributeName="opacity"></animate>
  </rect>
</g><g transform="rotate(234 50 50)">
  <rect fill="#4e2f68" height="1" width="1" ry="0" rx="0" y="39.5" x="49.5">
    <animate repeatCount="indefinite" begin="-0.1559633027522936s" dur="0.4587155963302753s" keyTimes="0;1" values="1;0" attributeName="opacity"></animate>
  </rect>
</g><g transform="rotate(237.6 50 50)">
  <rect fill="#4e2f68" height="1" width="1" ry="0" rx="0" y="39.5" x="49.5">
    <animate repeatCount="indefinite" begin="-0.15137614678899083s" dur="0.4587155963302753s" keyTimes="0;1" values="1;0" attributeName="opacity"></animate>
  </rect>
</g><g transform="rotate(241.2 50 50)">
  <rect fill="#4e2f68" height="1" width="1" ry="0" rx="0" y="39.5" x="49.5">
    <animate repeatCount="indefinite" begin="-0.14678899082568808s" dur="0.4587155963302753s" keyTimes="0;1" values="1;0" attributeName="opacity"></animate>
  </rect>
</g><g transform="rotate(244.8 50 50)">
  <rect fill="#4e2f68" height="1" width="1" ry="0" rx="0" y="39.5" x="49.5">
    <animate repeatCount="indefinite" begin="-0.14220183486238533s" dur="0.4587155963302753s" keyTimes="0;1" values="1;0" attributeName="opacity"></animate>
  </rect>
</g><g transform="rotate(248.4 50 50)">
  <rect fill="#4e2f68" height="1" width="1" ry="0" rx="0" y="39.5" x="49.5">
    <animate repeatCount="indefinite" begin="-0.13761467889908258s" dur="0.4587155963302753s" keyTimes="0;1" values="1;0" attributeName="opacity"></animate>
  </rect>
</g><g transform="rotate(252 50 50)">
  <rect fill="#4e2f68" height="1" width="1" ry="0" rx="0" y="39.5" x="49.5">
    <animate repeatCount="indefinite" begin="-0.13302752293577982s" dur="0.4587155963302753s" keyTimes="0;1" values="1;0" attributeName="opacity"></animate>
  </rect>
</g><g transform="rotate(255.6 50 50)">
  <rect fill="#4e2f68" height="1" width="1" ry="0" rx="0" y="39.5" x="49.5">
    <animate repeatCount="indefinite" begin="-0.12844036697247707s" dur="0.4587155963302753s" keyTimes="0;1" values="1;0" attributeName="opacity"></animate>
  </rect>
</g><g transform="rotate(259.2 50 50)">
  <rect fill="#4e2f68" height="1" width="1" ry="0" rx="0" y="39.5" x="49.5">
    <animate repeatCount="indefinite" begin="-0.12385321100917433s" dur="0.4587155963302753s" keyTimes="0;1" values="1;0" attributeName="opacity"></animate>
  </rect>
</g><g transform="rotate(262.8 50 50)">
  <rect fill="#4e2f68" height="1" width="1" ry="0" rx="0" y="39.5" x="49.5">
    <animate repeatCount="indefinite" begin="-0.11926605504587158s" dur="0.4587155963302753s" keyTimes="0;1" values="1;0" attributeName="opacity"></animate>
  </rect>
</g><g transform="rotate(266.4 50 50)">
  <rect fill="#4e2f68" height="1" width="1" ry="0" rx="0" y="39.5" x="49.5">
    <animate repeatCount="indefinite" begin="-0.11467889908256883s" dur="0.4587155963302753s" keyTimes="0;1" values="1;0" attributeName="opacity"></animate>
  </rect>
</g><g transform="rotate(270 50 50)">
  <rect fill="#4e2f68" height="1" width="1" ry="0" rx="0" y="39.5" x="49.5">
    <animate repeatCount="indefinite" begin="-0.11009174311926608s" dur="0.4587155963302753s" keyTimes="0;1" values="1;0" attributeName="opacity"></animate>
  </rect>
</g><g transform="rotate(273.6 50 50)">
  <rect fill="#4e2f68" height="1" width="1" ry="0" rx="0" y="39.5" x="49.5">
    <animate repeatCount="indefinite" begin="-0.10550458715596332s" dur="0.4587155963302753s" keyTimes="0;1" values="1;0" attributeName="opacity"></animate>
  </rect>
</g><g transform="rotate(277.2 50 50)">
  <rect fill="#4e2f68" height="1" width="1" ry="0" rx="0" y="39.5" x="49.5">
    <animate repeatCount="indefinite" begin="-0.10091743119266057s" dur="0.4587155963302753s" keyTimes="0;1" values="1;0" attributeName="opacity"></animate>
  </rect>
</g><g transform="rotate(280.8 50 50)">
  <rect fill="#4e2f68" height="1" width="1" ry="0" rx="0" y="39.5" x="49.5">
    <animate repeatCount="indefinite" begin="-0.09633027522935782s" dur="0.4587155963302753s" keyTimes="0;1" values="1;0" attributeName="opacity"></animate>
  </rect>
</g><g transform="rotate(284.4 50 50)">
  <rect fill="#4e2f68" height="1" width="1" ry="0" rx="0" y="39.5" x="49.5">
    <animate repeatCount="indefinite" begin="-0.09174311926605505s" dur="0.4587155963302753s" keyTimes="0;1" values="1;0" attributeName="opacity"></animate>
  </rect>
</g><g transform="rotate(288 50 50)">
  <rect fill="#4e2f68" height="1" width="1" ry="0" rx="0" y="39.5" x="49.5">
    <animate repeatCount="indefinite" begin="-0.0871559633027523s" dur="0.4587155963302753s" keyTimes="0;1" values="1;0" attributeName="opacity"></animate>
  </rect>
</g><g transform="rotate(291.6 50 50)">
  <rect fill="#4e2f68" height="1" width="1" ry="0" rx="0" y="39.5" x="49.5">
    <animate repeatCount="indefinite" begin="-0.08256880733944955s" dur="0.4587155963302753s" keyTimes="0;1" values="1;0" attributeName="opacity"></animate>
  </rect>
</g><g transform="rotate(295.2 50 50)">
  <rect fill="#4e2f68" height="1" width="1" ry="0" rx="0" y="39.5" x="49.5">
    <animate repeatCount="indefinite" begin="-0.0779816513761468s" dur="0.4587155963302753s" keyTimes="0;1" values="1;0" attributeName="opacity"></animate>
  </rect>
</g><g transform="rotate(298.8 50 50)">
  <rect fill="#4e2f68" height="1" width="1" ry="0" rx="0" y="39.5" x="49.5">
    <animate repeatCount="indefinite" begin="-0.07339449541284404s" dur="0.4587155963302753s" keyTimes="0;1" values="1;0" attributeName="opacity"></animate>
  </rect>
</g><g transform="rotate(302.4 50 50)">
  <rect fill="#4e2f68" height="1" width="1" ry="0" rx="0" y="39.5" x="49.5">
    <animate repeatCount="indefinite" begin="-0.06880733944954129s" dur="0.4587155963302753s" keyTimes="0;1" values="1;0" attributeName="opacity"></animate>
  </rect>
</g><g transform="rotate(306 50 50)">
  <rect fill="#4e2f68" height="1" width="1" ry="0" rx="0" y="39.5" x="49.5">
    <animate repeatCount="indefinite" begin="-0.06422018348623854s" dur="0.4587155963302753s" keyTimes="0;1" values="1;0" attributeName="opacity"></animate>
  </rect>
</g><g transform="rotate(309.6 50 50)">
  <rect fill="#4e2f68" height="1" width="1" ry="0" rx="0" y="39.5" x="49.5">
    <animate repeatCount="indefinite" begin="-0.05963302752293579s" dur="0.4587155963302753s" keyTimes="0;1" values="1;0" attributeName="opacity"></animate>
  </rect>
</g><g transform="rotate(313.2 50 50)">
  <rect fill="#4e2f68" height="1" width="1" ry="0" rx="0" y="39.5" x="49.5">
    <animate repeatCount="indefinite" begin="-0.05504587155963304s" dur="0.4587155963302753s" keyTimes="0;1" values="1;0" attributeName="opacity"></animate>
  </rect>
</g><g transform="rotate(316.8 50 50)">
  <rect fill="#4e2f68" height="1" width="1" ry="0" rx="0" y="39.5" x="49.5">
    <animate repeatCount="indefinite" begin="-0.050458715596330285s" dur="0.4587155963302753s" keyTimes="0;1" values="1;0" attributeName="opacity"></animate>
  </rect>
</g><g transform="rotate(320.4 50 50)">
  <rect fill="#4e2f68" height="1" width="1" ry="0" rx="0" y="39.5" x="49.5">
    <animate repeatCount="indefinite" begin="-0.045871559633027525s" dur="0.4587155963302753s" keyTimes="0;1" values="1;0" attributeName="opacity"></animate>
  </rect>
</g><g transform="rotate(324 50 50)">
  <rect fill="#4e2f68" height="1" width="1" ry="0" rx="0" y="39.5" x="49.5">
    <animate repeatCount="indefinite" begin="-0.04128440366972477s" dur="0.4587155963302753s" keyTimes="0;1" values="1;0" attributeName="opacity"></animate>
  </rect>
</g><g transform="rotate(327.6 50 50)">
  <rect fill="#4e2f68" height="1" width="1" ry="0" rx="0" y="39.5" x="49.5">
    <animate repeatCount="indefinite" begin="-0.03669724770642202s" dur="0.4587155963302753s" keyTimes="0;1" values="1;0" attributeName="opacity"></animate>
  </rect>
</g><g transform="rotate(331.2 50 50)">
  <rect fill="#4e2f68" height="1" width="1" ry="0" rx="0" y="39.5" x="49.5">
    <animate repeatCount="indefinite" begin="-0.03211009174311927s" dur="0.4587155963302753s" keyTimes="0;1" values="1;0" attributeName="opacity"></animate>
  </rect>
</g><g transform="rotate(334.8 50 50)">
  <rect fill="#4e2f68" height="1" width="1" ry="0" rx="0" y="39.5" x="49.5">
    <animate repeatCount="indefinite" begin="-0.02752293577981652s" dur="0.4587155963302753s" keyTimes="0;1" values="1;0" attributeName="opacity"></animate>
  </rect>
</g><g transform="rotate(338.4 50 50)">
  <rect fill="#4e2f68" height="1" width="1" ry="0" rx="0" y="39.5" x="49.5">
    <animate repeatCount="indefinite" begin="-0.022935779816513763s" dur="0.4587155963302753s" keyTimes="0;1" values="1;0" attributeName="opacity"></animate>
  </rect>
</g><g transform="rotate(342 50 50)">
  <rect fill="#4e2f68" height="1" width="1" ry="0" rx="0" y="39.5" x="49.5">
    <animate repeatCount="indefinite" begin="-0.01834862385321101s" dur="0.4587155963302753s" keyTimes="0;1" values="1;0" attributeName="opacity"></animate>
  </rect>
</g><g transform="rotate(345.6 50 50)">
  <rect fill="#4e2f68" height="1" width="1" ry="0" rx="0" y="39.5" x="49.5">
    <animate repeatCount="indefinite" begin="-0.01376146788990826s" dur="0.4587155963302753s" keyTimes="0;1" values="1;0" attributeName="opacity"></animate>
  </rect>
</g><g transform="rotate(349.2 50 50)">
  <rect fill="#4e2f68" height="1" width="1" ry="0" rx="0" y="39.5" x="49.5">
    <animate repeatCount="indefinite" begin="-0.009174311926605505s" dur="0.4587155963302753s" keyTimes="0;1" values="1;0" attributeName="opacity"></animate>
  </rect>
</g><g transform="rotate(352.8 50 50)">
  <rect fill="#4e2f68" height="1" width="1" ry="0" rx="0" y="39.5" x="49.5">
    <animate repeatCount="indefinite" begin="-0.0045871559633027525s" dur="0.4587155963302753s" keyTimes="0;1" values="1;0" attributeName="opacity"></animate>
  </rect>
</g><g transform="rotate(356.4 50 50)">
  <rect fill="#4e2f68" height="1" width="1" ry="0" rx="0" y="39.5" x="49.5">
    <animate repeatCount="indefinite" begin="0s" dur="0.4587155963302753s" keyTimes="0;1" values="1;0" attributeName="opacity"></animate>
  </rect>
</g><g></g></g><!-- [ldio] generated by https://loading.io --></svg>